<svg class="loading-animation" xmlns="http://www.w3.org/2000/svg" version="1.1" width="15" height="150px" viewBox="0 0 512 512"  style="shape-rendering:geometricPrecision; text-rendering:geometricPrecision; image-rendering:optimizeQuality; fill-rule:evenodd; clip-rule:evenodd" xmlns:xlink="http://www.w3.org/1999/xlink">
      <g><path style="opacity:1" fill="#003443" d="M -0.5,-0.5 C 170.167,-0.5 340.833,-0.5 511.5,-0.5C 511.5,170.167 511.5,340.833 511.5,511.5C 340.833,511.5 170.167,511.5 -0.5,511.5C -0.5,340.833 -0.5,170.167 -0.5,-0.5 Z"/></g>
      <g><path style="opacity:1" fill="#006480" d="M 444.5,57.5 C 444.5,57.8333 444.5,58.1667 444.5,58.5C 402.33,58.168 360.33,58.5013 318.5,59.5C 311.78,60.1807 305.113,61.1807 298.5,62.5C 298.611,61.8826 298.944,61.3826 299.5,61C 305.13,59.8146 310.797,58.8146 316.5,58C 359.165,57.5 401.832,57.3333 444.5,57.5 Z"/></g>
      <g><path style="opacity:1" fill="#008cb2" d="M 318.5,59.5 C 360.167,59.5 401.833,59.5 443.5,59.5C 443.833,166.668 443.499,273.668 442.5,380.5C 442.737,379.209 442.404,378.209 441.5,377.5C 431.946,340.222 409.612,313.722 374.5,298C 366.946,295.21 359.279,293.044 351.5,291.5C 348.466,289.982 345.133,289.149 341.5,289C 331.787,288.783 322.12,288.283 312.5,287.5C 264.492,278.814 233.159,251.147 218.5,204.5C 215.348,185.947 214.682,167.28 216.5,148.5C 224.536,114.286 243.87,88.4528 274.5,71C 282.191,67.2699 290.191,64.4366 298.5,62.5C 305.113,61.1807 311.78,60.1807 318.5,59.5 Z"/></g>
      <g><path style="opacity:1" fill="#0080a3" d="M 318.5,59.5 C 360.33,58.5013 402.33,58.168 444.5,58.5C 444.667,167.834 444.5,277.167 444,386.5C 443.495,384.482 442.995,382.482 442.5,380.5C 443.499,273.668 443.833,166.668 443.5,59.5C 401.833,59.5 360.167,59.5 318.5,59.5 Z"/></g>
      <g><path style="opacity:1" fill="#005168" d="M 444.5,57.5 C 445.666,170.333 445.833,283.333 445,396.5C 442.549,390.467 441.382,384.133 441.5,377.5C 442.404,378.209 442.737,379.209 442.5,380.5C 442.995,382.482 443.495,384.482 444,386.5C 444.5,277.167 444.667,167.834 444.5,58.5C 444.5,58.1667 444.5,57.8333 444.5,57.5 Z"/></g>
      <g><path style="opacity:1" fill="#0e5567" d="M 49.5,124.5 C 48.8333,123.5 48.1667,122.5 47.5,121.5C 47.2011,119.396 47.5344,117.396 48.5,115.5C 49.4841,118.428 49.8174,121.428 49.5,124.5 Z"/></g>
      <g><path style="opacity:1" fill="#3399af" d="M 47.5,121.5 C 48.1667,122.5 48.8333,123.5 49.5,124.5C 49.5,126.167 49.5,127.833 49.5,129.5C 48.5005,237.665 48.1672,345.999 48.5,454.5C 89.5,454.5 130.5,454.5 171.5,454.5C 130.337,455.499 89.0034,455.832 47.5,455.5C 47.5,344.167 47.5,232.833 47.5,121.5 Z"/></g>
      <g><path style="opacity:1" fill="#4bc5df" d="M 49.5,129.5 C 50.9288,132.308 51.5955,135.308 51.5,138.5C 51.3455,141.716 52.3455,144.383 54.5,146.5C 63.9385,173.372 80.9385,194.038 105.5,208.5C 105.973,209.906 106.973,210.573 108.5,210.5C 112.866,213.012 117.533,215.012 122.5,216.5C 124.617,218.655 127.284,219.655 130.5,219.5C 138.521,221.914 146.854,223.414 155.5,224C 164.525,224.284 173.525,224.784 182.5,225.5C 184.515,226.924 186.848,227.59 189.5,227.5C 191.565,227.517 193.565,227.85 195.5,228.5C 197.102,230.074 199.102,230.741 201.5,230.5C 238.251,244.916 262.584,270.916 274.5,308.5C 274.336,311.187 274.503,313.854 275,316.5C 275.099,318.653 275.933,320.319 277.5,321.5C 278.772,331.974 278.772,342.307 277.5,352.5C 275.753,358.96 274.419,365.627 273.5,372.5C 260.96,410.372 235.96,436.039 198.5,449.5C 195.848,449.41 193.515,450.076 191.5,451.5C 190.833,451.5 190.167,451.5 189.5,451.5C 187.102,451.259 185.102,451.926 183.5,453.5C 179.534,454.162 175.534,454.495 171.5,454.5C 130.5,454.5 89.5,454.5 48.5,454.5C 48.1672,345.999 48.5005,237.665 49.5,129.5 Z"/></g>
      <g><path style="opacity:1" fill="#2c8fa5" d="M 51.5,138.5 C 52.871,140.936 53.871,143.603 54.5,146.5C 52.3455,144.383 51.3455,141.716 51.5,138.5 Z"/></g>
      <g><path style="opacity:1" fill="#007595" d="M 216.5,148.5 C 214.682,167.28 215.348,185.947 218.5,204.5C 217.073,202.852 216.24,200.852 216,198.5C 212.59,181.655 212.757,164.989 216.5,148.5 Z"/></g>
      <g><path style="opacity:1" fill="#1d7388" d="M 105.5,208.5 C 107.027,208.427 108.027,209.094 108.5,210.5C 106.973,210.573 105.973,209.906 105.5,208.5 Z"/></g>
      <g><path style="opacity:1" fill="#268398" d="M 122.5,216.5 C 125.397,217.129 128.064,218.129 130.5,219.5C 127.284,219.655 124.617,218.655 122.5,216.5 Z"/></g>
      <g><path style="opacity:1" fill="#247e93" d="M 182.5,225.5 C 185.152,225.41 187.485,226.076 189.5,227.5C 186.848,227.59 184.515,226.924 182.5,225.5 Z"/></g>
      <g><path style="opacity:1" fill="#136072" d="M 195.5,228.5 C 197.898,228.259 199.898,228.926 201.5,230.5C 199.102,230.741 197.102,230.074 195.5,228.5 Z"/></g>
      <g><path style="opacity:1" fill="#004153" d="M 312.5,287.5 C 322.12,288.283 331.787,288.783 341.5,289C 345.133,289.149 348.466,289.982 351.5,291.5C 340.336,290.881 329.169,290.214 318,289.5C 315.705,289.453 313.871,288.787 312.5,287.5 Z"/></g>
      <g><path style="opacity:1" fill="#3094aa" d="M 274.5,308.5 C 276.118,312.575 277.118,316.908 277.5,321.5C 275.933,320.319 275.099,318.653 275,316.5C 274.503,313.854 274.336,311.187 274.5,308.5 Z"/></g>
      <g><path style="opacity:1" fill="#349db4" d="M 277.5,352.5 C 277.226,359.503 275.892,366.17 273.5,372.5C 274.419,365.627 275.753,358.96 277.5,352.5 Z"/></g>
      <g><path style="opacity:1" fill="#1b6c80" d="M 198.5,449.5 C 196.485,450.924 194.152,451.59 191.5,451.5C 193.515,450.076 195.848,449.41 198.5,449.5 Z"/></g>
      <g><path style="opacity:1" fill="#1d7287" d="M 189.5,451.5 C 187.898,453.074 185.898,453.741 183.5,453.5C 185.102,451.926 187.102,451.259 189.5,451.5 Z"/></g>
    </svg>